<svg xmlns="http://www.w3.org/2000/svg" width="120" height="120" viewBox="0 0 120 120">
  <g id="Page-1" fill="none" fill-rule="evenodd">
    <g id="no-photo">
      <rect id="Rectangle" width="120" height="120" fill="#F3F5F8"/>
      <g id="Group-5" fill="#90A0B7" fill-rule="nonzero" transform="translate(30 33)">
        <path id="Stroke-1" d="M36.7777778,14 C36.7777778,9.70370028 33.2962997,6.22222222 29,6.22222222 C24.7037003,6.22222222 21.2222222,9.70370028 21.2222222,14 C21.2222222,18.2962997 24.7037003,21.7777778 29,21.7777778 C33.2962997,21.7777778 36.7777778,18.2962997 36.7777778,14 Z M43,14 C43,21.7327382 36.7327382,28 29,28 C21.2672618,28 15,21.7327382 15,14 C15,6.26726184 21.2672618,0 29,0 C36.7327382,0 43,6.26726184 43,14 Z"/>
        <path id="Stroke-3" d="M6.31578947,54 L0,54 L0,41.7522447 L1.9324212,40.9792588 C2.40309497,40.7909851 3.22832533,40.4626915 4.29622967,40.040934 C6.07607326,39.3380036 7.87419621,38.6349818 9.57942637,37.9781675 C9.81392616,37.8878885 9.81392616,37.8878885 10.0487371,37.7976756 C10.8641464,37.4845681 11.635826,37.1908667 12.3566059,36.9195572 C15.7081673,35.6575576 19.52442,35.689724 22.7873698,37.0457859 C25.0900639,38.001702 27.8174088,38.4644117 30.0017903,38.4644117 C32.1840949,38.4644117 34.9132454,38.0013956 37.2114429,37.0462791 C40.47558,35.689724 44.2918327,35.6575576 47.6430476,36.9194267 C48.364174,37.1908667 49.1358536,37.4845681 49.9512629,37.7976756 C50.1860738,37.8878885 50.1860738,37.8878885 50.4205736,37.9781675 C52.1258038,38.6349818 53.9239267,39.3380036 55.7037703,40.040934 C56.7716747,40.4626915 57.596905,40.7909851 58.0675788,40.9792588 L60,41.7522447 L60,54 L53.6842105,54 L53.6842105,45.7412406 C53.553591,45.6895777 53.4185299,45.6361961 53.2792832,45.5812021 C51.5152938,44.8845331 49.7336532,44.1879554 48.0474679,43.5384769 C47.8160329,43.4493777 47.8160329,43.4493777 47.584448,43.3604042 C46.781825,43.0522065 46.0234247,42.7635592 45.3161975,42.4973511 C43.5128171,41.8183048 41.4452033,41.8357323 39.7427848,42.5432468 C36.5811121,43.8572183 33.002375,44.4643716 30.0017903,44.4643716 C26.9997019,44.4643716 23.4234321,43.8576369 20.2572152,42.5432468 C18.5547967,41.8357323 16.4871829,41.8183048 14.683456,42.4974815 C13.9765753,42.7635592 13.218175,43.0522065 12.415552,43.3604042 C12.1839671,43.4493777 12.1839671,43.4493777 11.9525321,43.5384769 C10.2663468,44.1879554 8.4847062,44.8845331 6.72071678,45.5812021 C6.58147012,45.6361961 6.44640903,45.6895777 6.31578947,45.7412406 L6.31578947,54 Z"/>
      </g>
    </g>
  </g>
</svg>
